<svg width="4603" height="1997" viewBox="0 0 4603 1997" fill="none"
    xmlns="http://www.w3.org/2000/svg">
    <g clip-path="url(#clip0_2_2)">
        <rect width="4603" height="1997" fill="white" />
        <path
            d="M3582.65 768.5C3673.9 982.177 3077.14 1433.43 2886.96 1488.86L2852.96 1499.36L2783.46 1454.86C2783.46 1454.86 2366 1054.5 2349 944C2332 833.5 2322.5 735 2322.5 735C2322.5 735 2339.5 688.5 2424 634C2508.5 579.5 2616.5 653 2616.5 653C2822 805.355 2758.5 776.5 2835 807.5C3040 852.5 3081.5 727.499 3088.5 717.999C3095.5 708.499 3146.46 631.355 3459.96 679.855C3490.75 688.692 3515.56 699.904 3535 713.14C3558.17 728.917 3573.71 747.568 3582.65 768.5ZM3582.65 768.5C3628.59 545.465 3700.63 446.759 3902 372.552M4077.5 320C4051.05 327.964 3924.94 364.099 3902 372.552M3902 372.552C4064.29 278.824 4097.83 173.819 4111 73.5"
            stroke="black" />
        <line x1="2852.5" y1="1624" x2="2852.5" y2="1677" stroke="black" />
        <line x1="2852.5" y1="1499" x2="2852.5" y2="1626" stroke="black" />
        <path
            d="M2649.02 1315.29C2537.63 1251.33 2402.33 1239.14 2069.02 1247.29C1685.29 1251.84 1549.5 1659 1253 1659L612.5 1599C360 1545 50 1638.5 136 1315.29"
            stroke="black" />
        <circle cx="2644.5" cy="1312.5" r="32.5" fill="#FF0000" />
        <circle cx="2074.5" cy="1247.5" r="32.5" fill="#FF0000" />
        <circle cx="2074.5" cy="1247.5" r="32.5" fill="#FF0000" />
        <circle cx="1193.5" cy="1652.5" r="32.5" fill="#FF0000" />
        <circle cx="1417.5" cy="1611.5" r="32.5" fill="#FF0000" />
        <circle cx="422.5" cy="1573.5" r="32.5" fill="#FF0000" />
        <circle cx="2342.5" cy="890.5" r="32.5" fill="#FF0000" />
        <circle cx="3316.5" cy="1206.5" r="32.5" fill="#FF0000" />
        <circle cx="2974.5" cy="810.5" r="32.5" fill="#FF0000" />
        <circle cx="3558.5" cy="919.5" r="32.5" fill="#FF0000" />
        <circle cx="3859.5" cy="392.5" r="32.5" fill="#FF0000" />
        <circle cx="2782" cy="1453" r="20" fill="#5E5E5E" />
        <circle cx="2952" cy="1460" r="20" fill="#5E5E5E" />
        <circle cx="3210" cy="1294" r="20" fill="#5E5E5E" />
        <circle cx="3108" cy="1370" r="20" fill="#5E5E5E" />
        <circle cx="3499" cy="1018" r="20" fill="#5E5E5E" />
        <circle cx="3591" cy="828" r="20" fill="#5E5E5E" />
        <circle cx="3600" cy="692" r="20" fill="#5E5E5E" />
        <circle cx="3631" cy="602" r="20" fill="#5E5E5E" />
        <circle cx="3679" cy="526" r="20" fill="#5E5E5E" />
        <circle cx="3742" cy="456" r="20" fill="#5E5E5E" />
        <circle cx="3981" cy="322" r="20" fill="#5E5E5E" />
        <circle cx="4046" cy="247" r="20" fill="#5E5E5E" />
        <circle cx="4090" cy="170" r="20" fill="#5E5E5E" />
        <circle cx="4110" cy="75" r="20" fill="#5E5E5E" />
        <circle cx="4066" cy="322" r="20" fill="#5E5E5E" />
        <circle cx="3409" cy="672" r="20" fill="#5E5E5E" />
        <circle cx="2714" cy="727" r="20" fill="#5E5E5E" />
        <circle cx="2398" cy="652" r="20" fill="#5E5E5E" />
        <circle cx="2324" cy="727" r="20" fill="#5E5E5E" />
        <circle cx="2330" cy="808" r="20" fill="#5E5E5E" />
        <circle cx="2375" cy="1003" r="20" fill="#5E5E5E" />
        <circle cx="2451" cy="1105" r="20" fill="#5E5E5E" />
        <circle cx="2534" cy="1195" r="20" fill="#5E5E5E" />
        <circle cx="2549" cy="1272" r="20" fill="#5E5E5E" />
        <circle cx="2367" cy="1247" r="20" fill="#5E5E5E" />
        <circle cx="2212" cy="1247" r="20" fill="#5E5E5E" />
        <circle cx="1937" cy="1265" r="20" fill="#5E5E5E" />
        <circle cx="1803" cy="1320" r="20" fill="#5E5E5E" />
        <circle cx="1725" cy="1380" r="20" fill="#5E5E5E" />
        <circle cx="1619" cy="1464" r="20" fill="#5E5E5E" />
        <circle cx="1528" cy="1539" r="20" fill="#5E5E5E" />
        <circle cx="1031" cy="1640" r="20" fill="#5E5E5E" />
        <circle cx="881" cy="1626" r="20" fill="#5E5E5E" />
        <circle cx="660" cy="1606" r="20" fill="#5E5E5E" />
        <circle cx="141" cy="1312" r="20" fill="#5E5E5E" />
        <circle cx="3421" cy="1116" r="20" fill="#5E5E5E" />
        <rect x="2849" y="1514" width="6" height="455" fill="#D9D9D9" />
        <rect x="2863" y="1514" width="6" height="455" fill="#D9D9D9" />
        <rect x="2884" y="1514" width="6" height="455" fill="#D9D9D9" />
        <rect x="2898" y="1514" width="6" height="455" fill="#D9D9D9" />
        <rect x="2814" y="1514" width="6" height="455" fill="#D9D9D9" />
        <rect x="2821" y="1514" width="6" height="455" fill="#D9D9D9" />
        <rect x="2800" y="1514" width="6" height="455" fill="#D9D9D9" />
        <rect x="2807" y="1514" width="6" height="455" fill="#D9D9D9" />
        <path d="M2842 1514H2848V1969H2842V1514Z" fill="#D9D9D9" />
        <rect x="2828" y="1514" width="6" height="455" fill="#D9D9D9" />
        <rect x="2835" y="1514" width="6" height="455" fill="#D9D9D9" />
        <rect x="2856" y="1514" width="6" height="455" fill="#D9D9D9" />
        <rect x="2870" y="1514" width="6" height="455" fill="#D9D9D9" />
        <rect x="2877" y="1514" width="6" height="455" fill="#D9D9D9" />
        <rect x="2891" y="1514" width="6" height="455" fill="#D9D9D9" />
        <circle cx="2803" cy="1951" r="2" fill="black" />
        <circle cx="2810" cy="1951" r="2" fill="black" />
        <circle cx="2817" cy="1951" r="2" fill="black" />
        <circle cx="2824" cy="1951" r="2" fill="black" />
        <circle cx="2831" cy="1951" r="2" fill="black" />
        <circle cx="2838" cy="1951" r="2" fill="black" />
        <circle cx="2845" cy="1951" r="2" fill="black" />
        <circle cx="2852" cy="1951" r="2" fill="black" />
        <circle cx="2859" cy="1951" r="2" fill="black" />
        <circle cx="2866" cy="1951" r="2" fill="black" />
        <circle cx="2873" cy="1951" r="2" fill="black" />
        <circle cx="2880" cy="1951" r="2" fill="black" />
        <circle cx="2887" cy="1951" r="2" fill="black" />
        <circle cx="2894" cy="1951" r="2" fill="black" />
        <circle cx="2901" cy="1951" r="2" fill="black" />
        <circle cx="2803" cy="1649" r="2" fill="black" />
        <circle cx="2810" cy="1649" r="2" fill="black" />
        <circle cx="2817" cy="1649" r="2" fill="black" />
        <circle cx="2824" cy="1649" r="2" fill="black" />
        <circle cx="2831" cy="1649" r="2" fill="black" />
        <circle cx="2838" cy="1649" r="2" fill="black" />
        <circle cx="2845" cy="1649" r="2" fill="black" />
        <circle cx="2852" cy="1649" r="2" fill="black" />
        <circle cx="2859" cy="1649" r="2" fill="black" />
        <circle cx="2866" cy="1649" r="2" fill="black" />
        <circle cx="2873" cy="1649" r="2" fill="black" />
        <circle cx="2880" cy="1649" r="2" fill="black" />
        <circle cx="2887" cy="1649" r="2" fill="black" />
        <circle cx="2894" cy="1649" r="2" fill="black" />
        <circle cx="2901" cy="1649" r="2" fill="black" />
    </g>
    <defs>
        <clipPath id="clip0_2_2">
            <rect width="4603" height="1997" fill="white" />
        </clipPath>
    </defs>
</svg>
    